<?xml version="1.0" encoding="utf-8"?>
<!-- Generator: Adobe Illustrator 16.0.0, SVG Export Plug-In . SVG Version: 6.00 Build 0)  -->
<!DOCTYPE svg PUBLIC "-//W3C//DTD SVG 1.1//EN" "http://www.w3.org/Graphics/SVG/1.1/DTD/svg11.dtd">
<svg version="1.1" id="Layer_1" xmlns="http://www.w3.org/2000/svg" xmlns:xlink="http://www.w3.org/1999/xlink" x="0px" y="0px"
	 width="4426.661px" height="1223.755px" viewBox="0 0 4426.661 1223.755" enable-background="new 0 0 4426.661 1223.755"
	 xml:space="preserve">
<g>
	<g>
		
			<path fill="#3C96D2" stroke="#3C96D2" stroke-width="12" stroke-linecap="round" stroke-linejoin="round" stroke-miterlimit="3" d="
			M1182.51,611.871c0,304.386-244.693,551.146-546.527,551.146c-301.821,0-546.515-246.76-546.515-551.146
			S334.161,60.738,635.982,60.738C937.816,60.738,1182.51,307.485,1182.51,611.871z"/>
		<g>
			<path fill="#FFFFFF" stroke="#FFFFFF" stroke-miterlimit="10" d="M735.752,313.265L472.17,445.272L582.117,211.44l29.645-63.062
				c7.008-4.497,14.891-7.008,23.229-7.008s16.217,2.511,23.227,7.008l29.658,63.09L735.752,313.265z"/>
			<polygon fill="#FFFFFF" stroke="#FFFFFF" stroke-miterlimit="10" points="805.676,461.96 359.503,684.89 443.92,505.361 
				753.182,350.362 			"/>
			<polygon fill="#FFFFFF" stroke="#FFFFFF" stroke-miterlimit="10" points="634.99,731.115 246.42,925.387 331.087,745.328 
				823.17,499.186 875.467,610.415 635.002,731.115 			"/>
			<polygon fill="#FFFFFF" stroke="#FFFFFF" stroke-miterlimit="10" points="680.906,754.075 893.109,647.927 1023.564,925.387 			
				"/>
		</g>
	</g>
	<g>
		<path fill="#333332" d="M2007.989,562.335c0-145.93,81.884-232.368,239.501-232.368c100.172,0,171.365,41.688,215.58,126.088
			l-116.933,83.397c-27.973-46.268-54.914-64.568-94.587-64.568c-48.809,0-77.271,33.045-77.271,85.428v135.231
			c0,52.381,28.463,85.436,77.271,85.436c37.645,0,65.602-15.763,97.647-64.579l118.959,80.861
			c-52.346,83.885-113.365,128.125-217.62,128.125c-158.127,0-242.548-86.958-242.548-231.866V562.335z"/>
		<path fill="#333332" d="M2496.102,345.73l94.585-7.628V231.83l162.72-16.275v122.547h145.424v133.215h-145.424v263.919
			c0,27.436,20.839,43.711,52.884,43.711c22.36,0,47.794-4.573,77.274-13.732l37.119,118.475
			c-43.719,27.963-91.03,41.695-143.392,41.695c-70.17,0-121.021-19.315-149.484-56.949c-28.986-37.121-41.195-82.376-41.195-143.88
			v-253.24h-90.511V345.73z"/>
		<path fill="#333332" d="M2992.854,141.829h170.335V289.28h-170.335V141.829z M2994.881,346.243h166.277v579.144h-166.277V346.243z
			"/>
		<path fill="#333332" d="M3269.954,338.102h166.78v345.761c0,60.001,21.349,83.404,63.543,83.404
			c27.478,0,54.42-11.199,82.375-34.082V338.102h166.275v579.144h-136.271l-13.212-50.831
			c-42.718,39.657-95.093,58.972-157.631,58.972c-48.81,0-88.482-14.746-114.394-39.157
			c-26.465-24.405-43.748-60.504-51.375-101.176c-4.073-20.344-6.091-42.211-6.091-66.615V338.102z"/>
		<g>
			<path fill="#333332" d="M1566.691,196.237h164.732l230.86,729.15h-181.023l-41.681-142.871h-181.023l-41.692,142.871h-181.531
				L1566.691,196.237z M1704.996,625.891l-53.903-211.516h-4.062l-54.405,211.516H1704.996z"/>
			<path fill="#333332" d="M3858.203,346.243h136.289l13.719,51.353c43.209-39.666,95.061-59.488,157.109-59.488
				c48.825,0,88.482,14.734,114.902,39.151c25.955,24.405,43.239,60.503,51.374,101.183c3.566,20.344,5.597,42.203,5.597,66.615
				v380.329h-166.768V579.633c0-59.995-21.359-83.383-63.57-83.383c-26.435,0-53.898,11.173-82.375,34.576v394.561h-166.277V346.243
				z"/>
		</g>
	</g>
</g>
</svg>
